<svg width="170" height="24" xmlns="http://www.w3.org/2000/svg" xmlns:xlink="http://www.w3.org/1999/xlink"><defs><path id="a" d="M0 24h170V0H0z"/></defs><g fill="none" fill-rule="evenodd"><path fill="#FFF" d="M41.853 9.384h6.929v1.542h-5.156v3.571h4.696v1.543h-4.696v4.027h5.156v1.542h-6.93z"/><path d="M57.098 11.224c-.903-.35-1.4-.508-2.321-.508-.993 0-2.163.35-2.163 1.629 0 2.346 5.317 1.804 5.317 5.831 0 2.61-2.037 3.642-4.52 3.642-.866 0-1.718-.243-2.532-.507l.176-1.628c.602.244 1.666.595 2.57.595 1.01 0 2.427-.56 2.427-1.996 0-2.733-5.316-1.98-5.316-5.78 0-2.172 1.736-3.328 3.97-3.328.815 0 1.79.14 2.641.438l-.249 1.612zm8.345 9.054c2.855 0 4.076-2.346 4.076-4.78 0-2.489-1.347-4.799-4.076-4.782-2.728-.017-4.075 2.293-4.075 4.782 0 2.434 1.22 4.78 4.075 4.78m0-11.104c3.757 0 5.954 2.7 5.954 6.324 0 3.711-2.176 6.32-5.954 6.32-3.775 0-5.953-2.609-5.953-6.32 0-3.624 2.196-6.324 5.953-6.324m17.392 7.386c0 3.432-1.756 5.27-4.804 5.27-3.049 0-4.802-1.838-4.802-5.27V9.397H75v6.934c0 2.348.744 3.957 3.03 3.957 2.287 0 3.03-1.61 3.03-3.957V9.397h1.774v7.163zm4.139-1.92h1.507c1.683 0 2.676-.738 2.676-1.91 0-1.103-.852-1.804-2.482-1.804h-1.701v3.713zM85.2 9.384h3.03c2.447 0 4.803.385 4.803 3.309 0 1.49-1.116 2.541-2.551 2.785v.035c.55.21.815.474 1.205 1.226l2.34 4.868h-2.021L90.11 17.37c-.55-1.19-1.134-1.19-2.074-1.19h-1.063v5.428H85.2V9.385zm15.72 10.894c2.854 0 4.076-2.346 4.076-4.78 0-2.489-1.348-4.799-4.076-4.782-2.728-.017-4.074 2.293-4.074 4.782 0 2.434 1.22 4.78 4.074 4.78m0-11.104c3.757 0 5.954 2.7 5.954 6.324 0 3.711-2.178 6.32-5.954 6.32-3.774 0-5.954-2.609-5.954-6.32 0-3.624 2.198-6.324 5.954-6.324M35.765 6.345h-5.387V4.798h12.765v1.547h-5.355v15.264h-2.023z" fill="#FFF"/><mask id="b" fill="#fff"><use xlink:href="#a"/></mask><path fill="#FFF" mask="url(#b)" d="M125.05 21.594h1.802V9.167h-1.802zm6.12-7.086h1.532c1.712 0 2.72-.75 2.72-1.94 0-1.124-.865-1.836-2.522-1.836h-1.73v3.776zm-1.801-5.341h3.08c2.487 0 4.884.39 4.884 3.362 0 1.514-1.137 2.583-2.596 2.832v.036c.559.215.828.48 1.227 1.246l2.377 4.95h-2.053l-1.93-4.308c-.556-1.211-1.151-1.211-2.107-1.211h-1.081v5.52h-1.801V9.167zm10.585.23h6.914v1.537h-5.146V14.5h4.686v1.537h-4.686v4.019h5.146v1.537h-6.914zm11.992 1.528h-3.841v-1.54h9.452v1.54h-3.841v10.668h-1.77zm12 9.315c2.9 0 4.146-2.386 4.146-4.86 0-2.53-1.37-4.88-4.146-4.862-2.774-.018-4.143 2.332-4.143 4.861 0 2.475 1.243 4.861 4.143 4.861m0-11.288c3.819 0 6.054 2.743 6.054 6.427 0 3.775-2.217 6.428-6.054 6.428-3.838 0-6.053-2.653-6.053-6.428 0-3.684 2.236-6.427 6.053-6.427m-52.602 11.096h1.409c4.894 0 7.888-1.668 7.888-6.895 0-5.203-2.923-7.02-6.78-7.02h-2.517v13.915zm-1.961-15.489h4.277c6.18 0 8.882 3.517 8.882 8.5 0 6.18-4.434 8.55-10.144 8.55h-3.015V4.558z"/><path d="M.474 7.322c.738-.157 8.166-4.604 16.619-4.711a13.04 13.04 0 011.7.1c4.859.56 4.922 2.643 5.207 2.57.399-.097 1.036-.688 1.054-.785.021-.128-.655-2.79-5.82-4.092C13.85-.955 2.122 1.486.993 2.297c-.917.58-1.423 5.39-.52 5.025" fill="#237131" mask="url(#b)"/><path d="M.474 7.322c.738-.157 8.166-4.604 16.619-4.711a13.04 13.04 0 011.7.1c4.859.56 4.922 2.643 5.207 2.57a1.17 1.17 0 00.317-.142c.04-.145-.977-2.215-5.084-2.7C11.523 1.501.016 6.19.023 6.581c.049.525.192.846.45.74" fill="#125428" mask="url(#b)"/><path d="M17.137 22.82c6.92-3.486 8.599-11.489 8.421-13.3-.115-.628-1.004-1.532-1.2-1.26-2.642 8.935-9.064 11.576-11.064 12.52-.618.372 1.715 2.513 3.27 2.282.12-.023.37-.134.573-.242" fill="#FFF" mask="url(#b)"/><path d="M17.137 22.82c2.949-1.486 4.945-3.79 6.253-6.088.178-.404-4.957.904-5.165 1.088-2.053 1.69-3.985 2.514-4.93 2.96-.619.372 1.714 2.513 3.27 2.282.118-.023.37-.134.572-.242" fill="#D1D3D4" mask="url(#b)"/><path d="M15.216 23.577c-1.538-.157-4.525-2.053-4.89-6.001-.522-4.19 1.114-10.92 1.347-11.924.307-1.309.37-1.33-.288-1.33-1.41 0-4.01 1.06-4.162 1.638-.124.479-1.33 6.476-.64 10.994.304 1.98.918 3.38 1.6 4.381.882 1.272 3.244 3.59 7.064 2.273.012-.004-.022-.031-.031-.031" fill="#ECC505" mask="url(#b)"/></g></svg>